<svg width="56" height="56" viewBox="0 0 56 56" fill="none" xmlns="http://www.w3.org/2000/svg">
<rect opacity="0.26" width="56" height="55.06" rx="12" fill="#EB966A"/>
<path d="M39.6667 11.1431H16.3333C13.5767 11.1431 11.3333 13.3488 11.3333 16.0592V20.6983C11.3333 22.4238 11.97 23.9921 13 25.1981V40.6395C13 41.0741 13.1756 41.4909 13.4882 41.7982C13.8007 42.1055 14.2247 42.2782 14.6667 42.2782H28C28.442 42.2782 28.866 42.1055 29.1785 41.7982C29.4911 41.4909 29.6667 41.0741 29.6667 40.6395V32.4461H36.3333V40.6395C36.3333 41.0741 36.5089 41.4909 36.8215 41.7982C37.1341 42.1055 37.558 42.2782 38 42.2782H41.3333C41.7754 42.2782 42.1993 42.1055 42.5119 41.7982C42.8244 41.4909 43 41.0741 43 40.6395V25.1965C44.03 23.9921 44.6667 22.4238 44.6667 20.6967V16.0592C44.6667 13.3488 42.4233 11.1431 39.6667 11.1431ZM41.3333 16.0592V20.6983C41.3333 22.5664 39.9183 24.1592 38.1817 24.2493L38 24.2526C36.1617 24.2526 34.6667 22.7827 34.6667 20.9752V14.4205H39.6667C40.5867 14.4205 41.3333 15.1562 41.3333 16.0592ZM24.6667 20.9752V14.4205H31.3333V20.9752C31.3333 22.7827 29.8383 24.2526 28 24.2526C26.1617 24.2526 24.6667 22.7827 24.6667 20.9752ZM14.6667 16.0592C14.6667 15.1562 15.4133 14.4205 16.3333 14.4205H21.3333V20.9752C21.3333 22.7827 19.8383 24.2526 18 24.2526L17.8183 24.2477C16.0817 24.1592 14.6667 22.5664 14.6667 20.6983V16.0592ZM24.6667 34.0847H18V29.1687H24.6667V34.0847Z" fill="url(#paint0_linear_1:213)"/>
<defs>
<linearGradient id="paint0_linear_1:213" x1="28" y1="11.1431" x2="28" y2="42.2782" gradientUnits="userSpaceOnUse">
<stop stop-color="#EA9769"/>
<stop offset="1" stop-color="#EA6969"/>
</linearGradient>
</defs>
</svg>
